<svg width="715" height="145" viewBox="0 0 715 145" fill="none" xmlns="http://www.w3.org/2000/svg">
<path d="M621 0.00837911C621.002 0.617609 621.005 1.22684 621.007 1.85453C621.066 16.7126 621.142 31.5705 621.236 46.4284C621.281 53.6138 621.32 60.799 621.346 67.9845C621.369 74.2509 621.403 80.5172 621.449 86.7835C621.473 90.0982 621.49 93.4128 621.498 96.7276C621.507 100.438 621.535 104.147 621.568 107.857C621.566 108.944 621.565 110.03 621.563 111.149C621.699 122.221 623.996 131.004 632 139.008C589.76 139.008 547.52 139.008 504 139.008C505.65 137.688 507.3 136.368 509 135.008C510.517 133.424 510.517 133.424 511.688 131.758C512.083 131.238 512.479 130.717 512.887 130.18C515.952 124.201 516.309 117.846 516.301 111.266C516.307 110.054 516.307 110.054 516.314 108.816C516.319 107.117 516.32 105.418 516.316 103.719C516.313 101.147 516.336 98.5762 516.361 96.0045C516.667 80.5686 516.667 80.5686 509.438 67.4459C508.838 66.8052 508.239 66.1645 507.621 65.5045C504.371 62.5053 501.558 62.8189 497.242 62.692C496.248 62.6608 496.248 62.6608 495.233 62.629C493.114 62.5636 490.994 62.5047 488.875 62.4459C487.439 62.4027 486.003 62.3591 484.566 62.315C481.044 62.2079 477.522 62.1066 474 62.0084C474.069 67.738 474.157 73.4668 474.262 79.1959C474.296 81.1434 474.324 83.091 474.346 85.0387C474.38 87.8441 474.432 90.6486 474.488 93.4537C474.495 94.3195 474.501 95.1854 474.508 96.0775C474.631 101.171 475.386 104.507 478 109.008C478 109.668 478 110.328 478 111.008C484.831 113.963 492.53 114.194 499.5 111.571C501.232 110.797 501.232 110.797 503 110.008C503.99 109.678 504.98 109.348 506 109.008C505.633 118.553 501.126 127.579 494.633 134.547C487.635 140.809 480.183 143.404 470.812 143.383C470.065 143.382 469.318 143.38 468.548 143.378C458.74 143.163 450.023 139.973 442.969 133.001C436.081 125.638 432.862 118.87 432.886 108.667C432.887 107.627 432.887 106.586 432.887 105.514C432.892 104.402 432.897 103.29 432.902 102.145C432.904 100.998 432.905 99.8509 432.907 98.669C432.912 95.0112 432.925 91.3536 432.938 87.6959C432.943 85.2135 432.947 82.731 432.951 80.2486C432.962 74.1685 432.979 68.0885 433 62.0084C427.72 62.0084 422.44 62.0084 417 62.0084C418.125 56.384 418.125 56.384 421.438 54.0982C422.159 53.5896 422.88 53.081 423.623 52.557C424.408 52.0253 425.192 51.4936 426 50.9459C427.214 50.0972 427.214 50.0972 428.453 49.2313C430.138 48.0548 431.826 46.8842 433.519 45.7193C436.526 43.6456 439.506 41.5347 442.484 39.42C444.562 37.9462 446.646 36.4804 448.73 35.0162C451.742 32.8989 454.743 30.7666 457.738 28.6256C458.514 28.0726 459.29 27.5197 460.09 26.95C461.581 25.887 463.07 24.8212 464.557 23.7523C465.226 23.276 465.896 22.7998 466.586 22.3092C467.174 21.888 467.763 21.4669 468.369 21.033C470 20.0084 470 20.0084 473 19.0084C473 29.5684 473 40.1284 473 51.0084C473.66 50.6784 474.32 50.3484 475 50.0084C477.25 49.8534 479.504 49.7583 481.758 49.692C482.421 49.6712 483.084 49.6504 483.767 49.629C485.886 49.5636 488.006 49.5047 490.125 49.4459C491.561 49.4027 492.997 49.3591 494.434 49.315C497.956 49.2079 501.478 49.1066 505 49.0084C504.34 52.6384 503.68 56.2684 503 60.0084C503.93 59.7689 504.86 59.5295 505.819 59.2828C515.804 56.7366 525.831 54.4501 535.905 52.2887C538.422 51.7483 540.938 51.2028 543.453 50.6568C545.06 50.3102 546.667 49.9638 548.273 49.6178C549.022 49.4553 549.771 49.2929 550.543 49.1255C555.769 48.0084 555.769 48.0084 558 48.0084C558.008 48.8381 558.016 49.6678 558.025 50.5226C558.103 58.3781 558.19 66.2333 558.288 74.0886C558.337 78.1261 558.384 82.1636 558.422 86.2012C558.459 90.1047 558.505 94.0079 558.558 97.9112C558.576 99.3934 558.592 100.876 558.603 102.358C558.499 120.549 558.499 120.549 567 136.008C568.939 136.134 568.939 136.134 571 135.008C581.233 124.531 579.161 109.078 579.168 95.3873C579.171 93.7951 579.175 92.2029 579.178 90.6107C579.184 87.29 579.186 83.9694 579.185 80.6488C579.185 76.4251 579.199 72.2017 579.216 67.9781C579.227 64.6947 579.229 61.4113 579.229 58.1279C579.23 56.572 579.234 55.0161 579.242 53.4602C579.724 35.0654 579.724 35.0654 572 19.0084C569.773 16.8554 567.465 14.8834 565 13.0084C565.33 12.3484 565.66 11.6884 566 11.0084C567.985 10.3503 567.985 10.3503 570.624 9.77156C572.101 9.44145 572.101 9.44145 573.608 9.10466C574.681 8.87437 575.754 8.64408 576.859 8.40682C577.956 8.16549 579.052 7.92416 580.182 7.67552C582.508 7.16556 584.835 6.65977 587.163 6.15779C590.723 5.3892 594.28 4.60613 597.836 3.82088C600.094 3.32782 602.351 2.83561 604.609 2.34432C606.206 1.99281 606.206 1.99281 607.836 1.6342C608.833 1.42043 609.831 1.20666 610.858 0.986406C611.733 0.797025 612.607 0.607644 613.507 0.412523C616.052 -1.85668e-05 618.427 -0.0193421 621 0.00837911Z" fill="url(#paint0_radial_70_13)"/>
<path d="M120 14C119.204 18.9954 118.404 23.99 117.601 28.9842C117.33 30.6761 117.059 32.3681 116.79 34.0603C115.085 44.7595 113.221 55.395 111 66C110.34 66 109.68 66 109 66C108.394 64.8631 107.788 63.7261 107.164 62.5547C101.735 52.4982 95.9361 43.0827 88.9998 34C88.2032 32.9076 88.2032 32.9076 87.3904 31.793C82.9976 26.1292 76.7721 22.2575 69.9998 20C64.316 19.3939 59.433 19.4279 54.5897 22.6758C45.8896 29.9223 41.5298 39.9381 39.9998 51C38.6836 69.4369 39.4599 87.1537 51.66 102.023C58.7671 109.697 67.8606 112.873 78.1873 113.313C91.7446 112.91 104.138 108.369 114 99C115.006 97.671 116.008 96.3393 117 95C117.66 95 118.32 95 119 95C118.137 109.381 111.581 121.891 101.312 131.813C87.0958 143.454 69.4949 144.229 51.9998 143C34.9724 140.781 21.3259 130.783 11.0936 117.531C-0.0133696 100.531 -1.89711 78.6498 1.71858 59.1172C5.86267 41.7192 14.6707 28.6811 29.6365 19.0078C56.1523 3.17845 91.4309 4.98117 120 14Z" fill="url(#paint1_radial_70_13)"/>
<path d="M413 49C413.006 49.7568 413.012 50.5135 413.018 51.2932C413.076 58.4574 413.148 65.6212 413.236 72.7851C413.28 76.4673 413.32 80.1494 413.346 83.8318C413.373 87.3917 413.413 90.9512 413.463 94.5108C413.488 96.5163 413.498 98.5219 413.508 100.527C413.648 109.354 414.147 117.699 420.438 124.438C421.014 125.076 421.59 125.714 422.184 126.371C424.028 128.025 425.739 129.011 428 130C428 130.66 428 131.32 428 132C420.972 133.574 413.943 135.14 406.912 136.7C404.521 137.231 402.13 137.765 399.74 138.3C396.303 139.07 392.864 139.832 389.426 140.594C388.358 140.834 387.29 141.075 386.19 141.323C384.689 141.653 384.689 141.653 383.157 141.99C382.28 142.186 381.403 142.381 380.499 142.582C378 143 378 143 373 143C372.505 132.605 372.505 132.605 372 122C370.763 124.506 370.763 124.506 369.5 127.062C365.172 134.929 359.581 140.285 351.039 143.34C342.189 145.262 332.034 145.522 323.859 141.266C319.076 138.009 316.281 135.344 313.75 130.062C313.25 129.043 312.75 128.023 312.234 126.973C309.932 121.428 309.843 116.212 309.789 110.297C309.761 108.577 309.732 106.857 309.703 105.137C309.662 102.447 309.625 99.757 309.599 97.0669C309.571 94.4557 309.525 91.8453 309.477 89.2344C309.473 88.4434 309.47 87.6525 309.467 86.8376C309.317 79.936 308.17 73.5041 303.562 68.1875C302.294 67.1047 302.294 67.1047 301 66C299.659 64.674 298.325 63.3417 297 62C301.332 60.9283 305.666 59.8626 310 58.8018C311.465 58.4426 312.929 58.082 314.392 57.7197C326.198 54.7989 338.06 52.3097 350 50C350.012 50.9881 350.012 50.9881 350.025 51.9962C350.111 58.8749 350.21 65.7534 350.317 72.6318C350.356 75.1962 350.39 77.7607 350.422 80.3252C350.468 84.0191 350.526 87.7126 350.586 91.4062C350.597 92.5461 350.609 93.686 350.621 94.8605C350.732 100.904 351.244 106.208 353 112C357.713 113.571 359.959 114.29 364.812 112.938C368.286 110.826 369.248 109.589 371 106C371.455 103.371 371.455 103.371 371.398 100.613C371.402 99.5917 371.406 98.5701 371.41 97.5176C371.399 96.4599 371.387 95.4022 371.375 94.3125C371.387 93.2742 371.398 92.2358 371.41 91.166C371.374 81.5819 370.269 73.4322 363.312 66.375C362.504 65.5371 361.696 64.6992 360.863 63.8359C360.248 63.2301 359.634 62.6242 359 62C361.85 60.1003 363.446 59.5055 366.699 58.7632C367.65 58.5431 368.601 58.323 369.581 58.0963C370.606 57.866 371.631 57.6357 372.688 57.3984C373.742 57.1571 374.796 56.9158 375.882 56.6671C378.11 56.1583 380.339 55.6524 382.569 55.1494C385.988 54.3777 389.404 53.5959 392.82 52.8125C394.984 52.3197 397.148 51.8275 399.312 51.3359C400.338 51.1016 401.363 50.8673 402.419 50.6258C403.37 50.4121 404.321 50.1983 405.301 49.978C406.138 49.7886 406.975 49.5993 407.837 49.4041C410 49 410 49 413 49Z" fill="url(#paint2_radial_70_13)"/>
<path d="M159.219 48.0276C174.22 47.699 187.217 50.2083 198.301 60.7698C203.064 66.0726 205.53 72.1663 205.595 79.2871C205.605 80.0915 205.616 80.8959 205.626 81.7247C205.634 82.5852 205.641 83.4457 205.648 84.3323C205.676 86.165 205.705 87.9977 205.734 89.8303C205.776 92.7116 205.813 95.5927 205.839 98.4741C205.866 101.261 205.912 104.046 205.961 106.832C205.964 107.691 205.967 108.549 205.971 109.434C206.067 114.132 206.362 117.347 209.438 121.149C211.443 122.158 211.443 122.158 213.625 122.461C214.883 122.688 216.141 122.915 217.438 123.149C217.307 128.493 216.978 132.74 213.098 136.801C204.333 143.916 195.331 144.983 184.395 144.375C178.336 143.674 173.377 140.565 169.438 136.024C168.085 134.079 166.752 132.12 165.438 130.149C165.037 130.668 164.636 131.188 164.223 131.723C159.235 137.842 153.424 142.734 145.438 144.149C135.303 144.756 126.954 144.848 118.625 138.399C113.105 133.206 112.252 128.591 112 121.211C112.177 114.24 113.231 109.623 117.98 104.477C129.234 94.0733 145.409 92.0739 160.207 92.1292C161.68 92.1334 161.68 92.1334 163.183 92.1377C163.927 92.1413 164.671 92.145 165.438 92.1487C165.326 88.3357 165.196 84.5235 165.062 80.7112C165.032 79.6419 165.001 78.5726 164.969 77.471C164.735 71.1095 164.032 65.3143 162.438 59.1487C160.557 58.4942 160.557 58.4942 158.438 58.1487C155.978 59.7733 155.978 59.7733 153.625 62.1487C152.743 62.9866 151.862 63.8245 150.953 64.6878C150.123 65.4999 149.293 66.312 148.438 67.1487C147.814 67.7339 147.19 68.3192 146.547 68.9221C142.207 73.0791 138.485 77.6775 134.723 82.3557C131.91 85.7935 128.96 89.089 125.969 92.3714C124.369 94.0813 124.369 94.0813 123.438 96.1487C122.447 96.1487 121.457 96.1487 120.438 96.1487C120.008 91.38 119.581 86.6111 119.156 81.8421C119.011 80.2203 118.865 78.5985 118.719 76.9768C118.509 74.6436 118.301 72.3103 118.094 69.9768C118.028 69.2538 117.963 68.5307 117.895 67.7857C117.609 64.5512 117.438 61.3999 117.438 58.1487C130.782 52.486 144.688 48.6603 159.219 48.0276ZM151.438 104.149C150.384 107.309 150.237 109.704 150.188 113.024C150.162 114.052 150.136 115.081 150.109 116.141C150.486 119.593 151.316 121.417 153.438 124.149C156.837 125.48 156.837 125.48 160.438 125.149C163.408 122.413 164.754 120.068 165.438 116.149C165.506 113.555 165.532 110.991 165.5 108.399C165.495 107.701 165.491 107.004 165.486 106.285C165.475 104.573 165.457 102.861 165.438 101.149C159.982 98.421 155.471 99.9962 151.438 104.149Z" fill="url(#paint3_radial_70_13)"/>
<path d="M712.4 53.3059C711.274 60.7293 709.873 68.083 708.337 75.4309C708.163 76.2724 707.989 77.1139 707.809 77.9809C707.642 78.7713 707.474 79.5618 707.302 80.3762C707.152 81.0853 707.003 81.7945 706.849 82.5251C706.4 84.3059 706.4 84.3059 705.4 86.3059C701.449 84.9891 700.559 83.1085 698.15 79.7434C688.025 65.8459 688.025 65.8459 673.4 57.3059C668.067 56.9624 668.067 56.9624 663.4 59.3059C663.483 63.8775 663.483 63.8775 665.642 67.788C670.75 72.1129 676.287 75.1698 682.212 78.2434C689.678 82.1334 696.594 86.3471 703.4 91.3059C704.328 91.9452 705.256 92.5846 706.212 93.2434C710.954 97.7141 714.194 103.277 714.638 109.818C715.016 124.07 715.016 124.07 710.4 130.306C709.719 131.337 709.038 132.368 708.337 133.431C702.269 140.286 692.513 143.831 683.585 144.525C680.312 144.648 677.05 144.685 673.775 144.681C672.596 144.681 671.418 144.681 670.204 144.68C658.103 144.526 644.393 143.802 633.4 138.306C634.72 127.416 636.04 116.526 637.4 105.306C641.282 106.6 642.559 108.986 644.837 112.181C652.822 122.914 662.97 134.059 676.837 136.181C680.363 136.512 680.363 136.512 683.4 135.306C684.359 133.111 684.359 133.111 684.4 130.306C681.162 125.768 678.168 123.232 673.212 120.556C672.616 120.226 672.019 119.896 671.404 119.555C668.676 118.05 665.928 116.583 663.169 115.133C638.372 102.092 638.372 102.092 633.712 90.9309C631.25 82.3327 631.239 73.8119 635.025 65.6223C640.058 57.1438 647.145 53.1525 656.4 50.3059C674.574 45.7564 694.514 48.5657 712.4 53.3059Z" fill="url(#paint4_radial_70_13)"/>
<path d="M264.486 48.0601C276.201 47.8338 288.941 48.1192 300.314 51.1772C298.68 66.2282 296.498 81.1977 294.314 96.1772C292.829 96.6722 292.829 96.6722 291.314 97.1772C291.028 96.6039 290.742 96.0306 290.447 95.4399C280.698 74.1275 280.698 74.1275 264.314 58.1772C260.015 57.3619 258.254 57.5437 254.627 59.9897C247.671 69.5769 247.135 80.0028 248.787 91.4546C250.756 100.803 255.264 107.861 263.314 113.177C272.991 117.281 283.108 117.023 292.877 113.302C295.357 112.24 297.312 111.179 299.466 109.544C301.314 108.177 301.314 108.177 303.314 108.177C302.225 118.227 297.943 127.171 290.502 134.115C278.171 143.912 264.518 145.403 249.314 144.177C236.611 141.905 225.786 135.794 218.314 125.177C213.216 116.07 210.93 107.168 211.002 96.8022C211.009 95.5466 211.009 95.5466 211.017 94.2656C211.242 82.3577 215.362 71.727 223.486 62.8647C234.641 52.5679 249.654 48.608 264.486 48.0601Z" fill="url(#paint5_radial_70_13)"/>
<path d="M549.259 5.46468C554.048 9.56628 555.861 14.4625 556.478 20.6639C556.762 27.6227 554.806 32.7228 550.509 38.2147C546.418 42.6338 542.897 44.2132 536.982 44.7772C528.733 45.0589 522.678 44.5561 516.517 38.8514C511.235 33.1517 509.802 27.6664 510.021 19.9842C510.61 13.7573 512.464 9.86308 517.072 5.58968C526.811 -2.14145 539.214 -1.53947 549.259 5.46468Z" fill="url(#paint6_radial_70_13)"/>
<defs>
<radialGradient id="paint0_radial_70_13" cx="0" cy="0" r="1" gradientUnits="userSpaceOnUse" gradientTransform="translate(524.5 71.6917) rotate(90) scale(71.6917 107.5)">
<stop stop-color="#0D1672"/>
<stop offset="0.74" stop-color="#4771FD"/>
<stop offset="0.985" stop-color="#7B9AFF"/>
</radialGradient>
<radialGradient id="paint1_radial_70_13" cx="0" cy="0" r="1" gradientUnits="userSpaceOnUse" gradientTransform="translate(60.0248 75.2869) rotate(90) scale(68.1402 59.975)">
<stop stop-color="#0D1672"/>
<stop offset="0.74" stop-color="#4771FD"/>
<stop offset="0.985" stop-color="#7B9AFF"/>
</radialGradient>
<radialGradient id="paint2_radial_70_13" cx="0" cy="0" r="1" gradientUnits="userSpaceOnUse" gradientTransform="translate(362.5 96.8354) rotate(90) scale(47.8354 65.5)">
<stop stop-color="#0D1672"/>
<stop offset="0.74" stop-color="#4771FD"/>
<stop offset="0.985" stop-color="#7B9AFF"/>
</radialGradient>
<radialGradient id="paint3_radial_70_13" cx="0" cy="0" r="1" gradientUnits="userSpaceOnUse" gradientTransform="translate(164.719 96.2605) rotate(90) scale(48.2605 52.7188)">
<stop stop-color="#0D1672"/>
<stop offset="0.74" stop-color="#4771FD"/>
<stop offset="0.985" stop-color="#7B9AFF"/>
</radialGradient>
<radialGradient id="paint4_radial_70_13" cx="0" cy="0" r="1" gradientUnits="userSpaceOnUse" gradientTransform="translate(673.394 96.3406) rotate(90) scale(48.3406 41.3937)">
<stop stop-color="#0D1672"/>
<stop offset="0.74" stop-color="#4771FD"/>
<stop offset="0.985" stop-color="#7B9AFF"/>
</radialGradient>
<radialGradient id="paint5_radial_70_13" cx="0" cy="0" r="1" gradientUnits="userSpaceOnUse" gradientTransform="translate(257.157 96.2718) rotate(90) scale(48.2718 46.1571)">
<stop stop-color="#0D1672"/>
<stop offset="0.74" stop-color="#4771FD"/>
<stop offset="0.985" stop-color="#7B9AFF"/>
</radialGradient>
<radialGradient id="paint6_radial_70_13" cx="0" cy="0" r="1" gradientUnits="userSpaceOnUse" gradientTransform="translate(533.253 22.4188) rotate(90) scale(22.4188 23.2525)">
<stop stop-color="#0D1672"/>
<stop offset="0.74" stop-color="#4771FD"/>
<stop offset="0.985" stop-color="#7B9AFF"/>
</radialGradient>
</defs>
</svg>
